<?xml version="1.0" encoding="UTF-8"?>
<svg id="_レイヤー_2" data-name="レイヤー 2" xmlns="http://www.w3.org/2000/svg" viewBox="0 0 161.76 44.64">
  <defs>
    <style>
      .cls-1 {
        fill: #bcaaa4;
      }
    </style>
  </defs>
  <g id="_レイヤー_1-2" data-name="レイヤー 1">
    <g>
      <g>
        <path class="cls-1" d="M22.66,44.21c-1.58,0-3.12-1.06-3.74-3.5-.62-2.4-2.4-10.46-2.93-14.69-.05-.34-.19-.62-.29-.62s-.19.14-.24.58c-.53,4.27-2.06,11.57-2.93,14.74-.62,2.35-2.4,3.55-4.13,3.55s-3.46-1.2-4.03-3.55C3.36,36.43,1.01,27.21.05,23.09c-.05-.19-.05-.34-.05-.48,0-1.34,1.3-2.06,2.54-2.06,1.06,0,2.06.48,2.35,1.58.91,3.7,2.74,12.91,3.36,16.9.1.62.24.91.34.91.19,0,.34-.34.43-.86.67-3.84,2.54-12.34,3.26-15.79.38-1.87,1.87-2.74,3.36-2.74,1.58,0,3.26,1.01,3.6,2.64.62,2.98,2.64,11.38,3.22,15.65.1.62.19.82.29.82.14,0,.29-.43.38-.77,1.01-4.18,3.22-13.15,3.94-16.71.24-1.15,1.25-1.68,2.3-1.68,1.2,0,2.45.72,2.45,2.02,0,1.54-3.17,12.77-4.99,18.29-.72,2.16-2.45,3.41-4.18,3.41Z"/>
        <path class="cls-1" d="M51.12,43.34c-.43-.34-.86-.86-1.3-1.58-.05-.1-.14-.14-.19-.14-.1,0-.19.05-.29.14-1.63,1.87-4.66,2.88-7.49,2.88-5.28,0-8.4-3.84-8.4-7.54,0-2.45,1.44-4.9,4.66-6,3.31-1.15,7.44-2.06,8.21-2.11.48-.05.86-.62.86-1.63,0-.58-.14-3.03-3.41-3.03-2.16,0-3.79,1.01-4.7,2.02-.53.62-1.2.86-1.78.86-1.25,0-2.3-.96-2.3-2.21,0-2.3,4.22-4.85,9.07-4.85,5.28,0,8.16,2.59,8.16,8.11,0,.62-.05,1.2-.1,1.87-.1.72-.24,2.54-.24,3.98,0,.43,0,.82.05,1.1.43,3.84,2.21,3.98,2.59,4.27.53.38.77,1.01.77,1.68,0,1.34-1.06,2.88-2.45,2.88-.53,0-1.15-.24-1.73-.72ZM46.71,33.02c-8.11,1.01-8.59,3.02-8.59,4.18,0,1.49,1.3,2.98,3.74,2.98,3.89,0,5.57-1.97,5.57-5.38,0-.72-.1-1.78-.67-1.78h-.05Z"/>
        <path class="cls-1" d="M64.94,44.59c-5.86,0-8.3-3.31-8.3-4.9,0-1.29,1.2-2.3,2.45-2.3.67,0,1.39.29,1.92,1.01.67.86,1.92,1.68,3.89,1.68,2.54,0,3.55-1.34,3.55-2.45,0-1.54-1.06-2.45-6.67-4.99-2.98-1.29-4.32-3.65-4.32-6,0-3.26,2.69-6.43,7.3-6.43s7.39,2.16,7.39,4.03c0,1.3-1.1,2.4-2.4,2.4-.62,0-1.34-.29-1.97-.96-.48-.48-1.34-1.15-3.02-1.15s-2.54.91-2.54,1.97c0,.72.48,1.58,1.58,2.11,1.25.62,3.41,1.58,4.85,2.35,3.31,1.78,4.7,4.22,4.7,6.58,0,3.74-3.6,7.06-8.4,7.06Z"/>
        <path class="cls-1" d="M91.15,44.54c-8.74,0-12-6.82-12-11.95,0-6.48,4.61-12.39,12.14-12.39,5.14,0,8.64,3.02,8.64,4.99,0,1.34-1.2,2.5-2.54,2.5-.67,0-1.39-.29-2.02-1.06-1.01-1.25-2.69-1.82-4.37-1.82-4.08,0-7.01,3.17-7.01,7.54,0,1.06.48,7.44,7.1,7.44,2.02,0,4.03-.77,5.09-2.21.58-.77,1.3-1.06,1.97-1.06,1.39,0,2.69,1.2,2.69,2.54,0,2.06-4.08,5.47-9.7,5.47Z"/>
        <path class="cls-1" d="M120.29,43.34c-.43-.34-.86-.86-1.3-1.58-.05-.1-.14-.14-.19-.14-.1,0-.19.05-.29.14-1.63,1.87-4.66,2.88-7.49,2.88-5.28,0-8.4-3.84-8.4-7.54,0-2.45,1.44-4.9,4.66-6,3.31-1.15,7.44-2.06,8.21-2.11.48-.05.86-.62.86-1.63,0-.58-.14-3.03-3.41-3.03-2.16,0-3.79,1.01-4.7,2.02-.53.62-1.2.86-1.78.86-1.25,0-2.3-.96-2.3-2.21,0-2.3,4.22-4.85,9.07-4.85,5.28,0,8.16,2.59,8.16,8.11,0,.62-.05,1.2-.1,1.87-.1.72-.24,2.54-.24,3.98,0,.43,0,.82.05,1.1.43,3.84,2.21,3.98,2.59,4.27.53.38.77,1.01.77,1.68,0,1.34-1.06,2.88-2.45,2.88-.53,0-1.15-.24-1.73-.72ZM115.87,33.02c-8.11,1.01-8.59,3.02-8.59,4.18,0,1.49,1.3,2.98,3.74,2.98,3.89,0,5.57-1.97,5.57-5.38,0-.72-.1-1.78-.67-1.78h-.05Z"/>
        <path class="cls-1" d="M133.78,25.29c-.48,0-.62,0-.62.77,0,0,.1,10.08.1,14.11v1.44c0,1.73-1.3,2.59-2.59,2.59-1.2,0-2.4-.82-2.4-2.4v-.19c.05-.77.05-2.74.05-5.04,0-4.61-.05-10.51-.05-10.51,0-.67-.05-.77-.82-.77h-1.68c-1.49,0-2.16-1.15-2.16-2.3s.72-2.35,2.16-2.35h1.73c.48,0,.77,0,.77-.62,0-.48-.05-1.01-.05-2.26,0-9.26,7.39-9.89,8.69-9.89,1.68,0,2.98.53,2.98,2.3,0,1.2-.82,2.4-2.3,2.4h-.53c-3.84,0-3.94,4.18-3.94,5.71,0,.82,0,1.25.05,1.87,0,.48.34.48.67.48h3.7c1.44,0,2.16,1.15,2.16,2.3s-.72,2.35-2.16,2.35h-3.74Z"/>
        <path class="cls-1" d="M151.29,44.64c-6.58,0-11.47-4.95-11.47-12.1s5.18-12.38,11.38-12.38c6.62,0,10.37,4.85,10.37,8.5,0,2.26-1.49,4.08-4.56,4.18-1.49.05-2.5.05-11.81.05-.29,0-.38.38-.38.91.05,3.98,3.12,6.38,6.53,6.38,3.02,0,4.85-1.44,6.24-2.93.48-.53,1.06-.77,1.63-.77,1.3,0,2.54,1.15,2.54,2.5,0,.58-.19,1.15-.72,1.68-2.3,2.4-4.9,3.98-9.75,3.98ZM156.58,27.84c0-.67-1.01-3.5-5.33-3.5-3.89,0-6,3.36-6,4.18,0,.43.48.43,4.94.43,1.97,0,4.13,0,5.42-.05.58-.05.96-.48.96-1.06Z"/>
      </g>
      <ellipse class="cls-1" cx="82.71" cy="18.07" rx="3.5" ry="2.5"/>
      <ellipse class="cls-1" cx="89.48" cy="12.07" rx="4.9" ry="3.5"/>
      <ellipse class="cls-1" cx="101.48" cy="5.29" rx="7.4" ry="5.29"/>
      <g>
        <path class="cls-1" d="M93.67,26.28c4.31,5.37-1.85,6.74-.05,9.99l1.24,2.21c.08-.04-.2-.89.31-1.8,1.84-3.25,3.06-5.1,1.52-7.89-.69-1.24-1.78-2.1-3.03-2.52Z"/>
        <path class="cls-1" d="M91.77,26.14c1.74,2.97-1.53,4.04-.32,6.23l1.16,2.08s-.15-.64.19-1.25c1.24-2.2,2.05-3.48,1.01-5.36-.46-.84-1.2-1.42-2.04-1.7Z"/>
        <path class="cls-1" d="M85.15,31.01c2.27,6.51,6.7,2.01,8.5,5.25l1.22,2.22c-.07.04-.65-.64-1.69-.69-3.74-.16-5.95-.11-7.49-2.89-.69-1.24-.84-2.63-.53-3.9Z"/>
        <path class="cls-1" d="M86.03,29.32c1.6,3.05,4.24.84,5.45,3.03l1.15,2.08s-.46-.47-1.16-.5c-2.52-.11-4.04-.1-5.08-1.98-.46-.84-.57-1.77-.36-2.63Z"/>
        <path class="cls-1" d="M90.47,25.81c-.27-.2-.68-.33-1.13-.08-.67.37-.75,1.42-.75,1.42,0,0-.93-.49-1.6-.11-.44.25-.55.66-.53,1,.02.27.27.71.52.92.85.74,2.28.67,3.48,1.57-.13-1.5.69-2.67.52-3.78-.05-.32-.29-.77-.51-.93Z"/>
      </g>
    </g>
  </g>
</svg>